<?xml version="1.0" encoding="UTF-8" standalone="no"?>
<!DOCTYPE svg PUBLIC "-//W3C//DTD SVG 1.1//EN" "http://www.w3.org/Graphics/SVG/1.1/DTD/svg11.dtd">
<!-- Created with Vectornator (http://vectornator.io/) -->
<svg height="100%" stroke-miterlimit="10" style="fill-rule:nonzero;clip-rule:evenodd;stroke-linecap:round;stroke-linejoin:round;" version="1.1" viewBox="0 0 1107 603" width="100%" xml:space="preserve" xmlns="http://www.w3.org/2000/svg" xmlns:vectornator="http://vectornator.io" xmlns:xlink="http://www.w3.org/1999/xlink">
<defs/>
<clipPath id="ArtboardFrame">
<rect height="603" width="1107" x="0" y="0"/>
</clipPath>
<g clip-path="url(#ArtboardFrame)" id="Layer-1" vectornator:layerName="Layer 1">
<path d="M359.45 193.883C335.43 199.888 301.598 240.319 295.823 266.309C293.897 274.974 303.629 283.864 299.207 292.707C296.167 298.788 289.085 303.46 286.346 310.306C277.889 331.45 270.778 352.55 270.778 375.964C270.778 390.266 299.203 408.751 287.7 420.638C281.265 427.287 274.515 433.627 268.071 440.267C267.268 441.094 262.043 450.406 261.302 450.421C238.067 450.863 214.822 450.642 191.583 450.421C185.072 450.359 165.629 424.065 157.062 420.638C152.187 418.688 141.327 424.224 136.756 426.053C126.946 429.977 118.334 437.706 111.034 445.006C109.544 446.496 109.008 449.496 106.973 450.421C99.9809 453.599 92.5256 451.003 88.6973 460.574C82.9787 474.87 89.1604 513.138 90.051 529.616C90.8178 543.801 87.9797 564.096 98.8505 574.967C100.842 576.959 104.921 578.33 107.65 578.351C166.086 578.795 224.524 579.028 282.962 579.028C302.598 579.028 298.814 552.912 299.207 541.123C299.877 521.019 300.182 500.981 300.561 480.88C300.895 463.2 302.503 460.507 289.054 450.421C297.377 440.433 333.668 425.675 335.759 415.223C338.042 403.804 332.203 392.537 330.344 381.379C326.682 359.411 340.497 340.728 340.497 319.783C340.497 308.998 339.323 282.931 345.235 273.078C346.771 270.517 349.045 271.527 352.004 271.724C361.058 272.328 363.321 280.153 365.542 280.523C375.331 282.155 394.661 266.309 406.154 266.309C410.502 266.309 432.713 291.275 434.583 280.523C437.134 265.858 430.619 262.634 427.815 251.418C424.37 237.64 422.98 232.368 412.246 221.635C406.781 216.17 394.858 217.27 388.555 216.22C384.55 215.552 388.387 207.422 385.848 204.036C380.811 197.32 376.7 195.855 359.45 193.883Z" fill="#343245" fill-rule="nonzero" opacity="1" stroke="none"/>
<path d="M678.937 537.061C676.123 539.876 680.115 547.604 676.23 547.891C670.605 548.308 664.945 547.69 659.308 547.891C658.595 547.917 657.954 548.343 657.277 548.568C657.277 559.15 658.736 576.879 643.063 576.997C584.626 577.44 526.188 577.674 467.75 577.674C446.696 577.674 458.947 550.595 450.828 542.476C448.47 543.656 445.499 547.798 442.706 547.891C436.392 548.102 430.067 548.102 423.753 547.891C422.745 547.858 421.948 546.989 421.046 546.538C402.832 564.752 364.803 531.031 346.589 549.245C350.403 556.873 379.886 547.605 384.494 561.429C386.904 568.66 380.351 571.479 375.018 573.613C361.751 578.919 338.375 582.223 325.606 571.582C318.518 565.676 321.839 553.601 315.452 547.215C310.369 549.756 303.388 551.396 299.207 547.215C291.892 554.529 304.942 576.836 283.639 576.997C225.203 577.44 166.765 577.674 108.327 577.674C88.4266 577.674 98.1603 547.78 88.6973 547.891C69.9702 548.112 51.2329 547.908 32.5162 548.568C15.8138 549.158 4.91036 572.552 12.2098 587.15C15.7223 594.176 24.6684 602.028 33.1931 602.042C317.483 602.491 601.773 602.319 886.063 602.719C922.389 602.77 958.714 603.396 995.041 603.396C1020.99 603.396 1046.94 603.151 1072.88 602.719C1098.79 602.287 1100.96 568.527 1086.42 553.983C1074.33 541.897 1041.13 554.725 1032.95 546.538C1028.63 550.857 1031.82 558.709 1031.59 564.813C1031.44 569.046 1026.59 573.769 1023.47 575.644C1022.11 576.457 1018.68 576.987 1017.38 576.997C958.942 577.44 900.503 577.674 842.066 577.674C823.817 577.674 831.731 555.246 825.144 551.953C819.021 548.891 808.14 562.701 802.13 556.691C796.705 562.115 788.843 563.875 783.177 568.875C773.832 577.121 769.948 580.956 759.486 584.443C746.793 588.674 736.419 578.457 742.564 566.167C745.316 560.664 755.236 552.919 761.517 551.953C764.45 551.501 768.218 552.697 770.316 550.599C767.174 547.456 727.674 548.568 717.519 548.568C705.561 548.568 693.595 549.003 681.645 548.568C677.656 548.423 681.873 539.997 678.937 537.061Z" fill="#e6e6e6" fill-rule="nonzero" opacity="1" stroke="none"/>
<path d="M459.628 450.421C456.236 453.392 451.783 454.742 448.798 459.22C443.497 467.171 446.937 479.194 447.444 488.326C447.782 494.413 447.783 500.515 448.121 506.602C448.786 518.58 449.503 530.546 450.828 542.476C452.104 553.955 448.261 578.208 467.074 578.351C525.51 578.795 583.948 579.028 642.386 579.028C644.123 579.028 647.608 578.157 649.155 576.997C664.912 565.179 658.92 539.625 659.308 522.17C659.639 507.281 659.626 492.385 659.985 477.496C660.209 468.183 660.927 451.15 646.447 451.097C584.625 450.874 522.803 450.645 460.982 450.421C460.53 450.419 459.967 450.123 459.628 450.421Z" fill="#343245" fill-rule="nonzero" opacity="1" stroke="none"/>
<path d="M861.695 449.744C854.106 449.74 840.446 448.09 831.235 451.774C812.52 459.261 822.809 512.646 823.79 530.292C824.552 544.014 821.961 564.338 832.589 574.967C834.581 576.959 838.659 578.33 841.389 578.351C899.825 578.795 958.263 579.028 1016.7 579.028C1040.48 579.028 1033.44 538.317 1033.62 524.201C1033.82 508.632 1033.94 493.061 1034.3 477.496C1034.6 464.37 1036.17 461.601 1026.85 453.128C1022.46 449.137 1012.25 450.441 1007.9 450.421C959.166 450.197 910.431 449.766 861.695 449.744Z" fill="#343245" fill-rule="nonzero" opacity="1" stroke="none"/>
<path d="M619.372 342.12C615.848 345.644 582.586 344.621 580.113 344.827C573.277 345.397 568.886 347.815 564.544 343.473C560.32 347.698 556.053 344.258 551.684 347.535C532.271 362.094 506.098 367.399 488.734 384.763C485.339 388.158 483.604 397.587 481.965 401.685C475.318 418.302 467.115 434.771 458.951 451.097C459.402 451.549 459.667 452.449 460.305 452.451C522.127 452.675 583.948 451.774 645.77 451.774C658.854 451.774 659.308 468.264 659.308 476.819C659.308 491.712 658.962 506.604 658.631 521.493C658.51 526.911 658.239 532.326 657.954 537.738C657.751 541.595 655.465 548.861 659.308 549.245C665.369 549.851 671.506 549.664 677.584 549.245C681.213 548.995 678.486 542.025 678.937 538.415C680.728 524.089 684.361 507.554 686.383 492.387C689.241 470.956 684.134 450.575 680.291 429.437C674.633 398.316 675.472 375.206 652.539 352.273C650.643 350.377 645.489 345.344 642.386 344.827C636.402 343.83 623.889 346.637 619.372 342.12Z" fill="#cccccc" fill-rule="nonzero" opacity="1" stroke="none"/>
<path d="M150.97 421.315C151.647 421.992 151.647 421.992 152.324 422.668C162.078 417.792 181.925 451.682 191.583 451.774C214.822 451.996 238.079 452.642 261.302 451.774C266.634 451.575 263.194 449.344 264.009 447.713C266.815 442.101 275.625 434.301 278.901 430.791C277.142 429.032 272.865 398.697 273.486 395.593C273.977 393.137 277.862 394.601 279.578 392.886C263.719 377.027 276.197 329.479 287.7 310.306C293.809 300.125 308.697 288.664 298.53 275.108C296.156 271.943 295.74 274.432 290.408 274.432C275.222 274.432 271.757 273.327 261.302 283.231C253.773 290.364 246.299 297.557 238.965 304.891C222.775 321.081 208.998 340.326 194.968 358.365C179.677 378.024 162.161 398.934 150.97 421.315Z" fill="#91d9fc" fill-rule="nonzero" opacity="1" stroke="none"/>
<path d="M934.798 316.398C915.884 321.127 906.238 330.438 894.185 345.504C891.585 348.754 886.809 351.527 884.032 354.303C877.43 360.906 875.233 376.748 875.233 385.44C875.233 395.434 880.528 403.955 879.971 414.546C879.534 422.842 859.359 442.736 862.372 451.774C910.882 451.774 959.394 452.221 1007.9 451.774C1011.97 451.737 1008.9 443.645 1008.58 439.59C1007.76 429.351 1005.65 419.078 1003.16 409.131C998.052 388.687 991.114 371.36 976.088 356.334C970.825 351.071 962.142 349.157 956.458 343.473C950.715 337.73 947.556 317.752 934.798 316.398Z" fill="#91d9fc" fill-rule="nonzero" opacity="1" stroke="none"/>
<path d="M574.021 224.342C568.15 224.342 562.293 223.666 556.422 223.666C545.225 223.666 535.344 230.612 534.085 241.941C533.636 245.978 536.174 250.643 534.085 254.125C529.689 261.451 521.1 269.569 530.024 278.493C533.428 276.223 534.079 267.668 538.146 263.601C546.834 254.913 573.897 254.247 580.79 266.309C586.216 275.806 596.938 285.698 601.096 296.092C605.942 308.207 597.815 322.624 598.388 334.674C598.853 344.423 614.194 348.651 620.049 342.797C601.517 324.265 633.815 315.488 641.032 297.446C650.141 274.674 642.405 253.249 628.848 235.172C651.862 212.159 619.745 182.477 593.65 191.175C580.271 195.635 577.875 212.779 574.021 224.342Z" fill="#343245" fill-rule="nonzero" opacity="1" stroke="none"/>
<path d="M875.233 210.128C868.621 213.434 871.844 217.577 867.787 221.635C843.323 209.403 815.279 238.169 838.681 261.571C848.996 271.886 853.825 246.806 865.756 252.771C870.915 255.351 869.008 265.367 871.171 269.693C873.605 274.56 881.086 269.903 884.709 274.432C888.335 278.964 887.519 289.75 895.539 291.354C904.374 293.12 894.749 275.037 910.431 276.462C928.011 278.06 920.589 298.138 923.968 308.276C926.084 314.623 936.304 315.591 940.89 311.66C948.061 305.514 944.951 295.122 944.951 286.615C944.951 276.484 951.72 268.966 951.72 258.863C951.72 249.013 927.767 220.019 921.261 213.512C917.332 209.584 888.456 212.017 875.233 210.128Z" fill="#343245" fill-rule="nonzero" opacity="1" stroke="none"/>
<path d="M316.129 430.114C308.451 437.792 295.684 440.762 287.7 449.744C285.605 452.1 292.862 453.605 297.853 459.22C302.522 464.472 299.884 473.176 299.884 480.203C299.884 487.201 298.995 494.192 299.207 501.187C299.31 504.59 313.324 544.409 315.452 546.538C313.779 549.884 318.877 556.258 319.514 560.075C323.811 585.862 371.305 585.296 385.848 567.521C389.701 562.812 380.635 554.372 376.372 553.306C369.899 551.688 348.756 551.051 347.266 548.568C342.626 540.835 343.107 526.131 340.497 517.432C335.162 499.649 330.813 480.726 326.282 462.604C324.241 454.437 323.332 434.916 316.129 430.114Z" fill="#fbb6b7" fill-rule="nonzero" opacity="1" stroke="none"/>
<path d="M529.347 278.493C532.836 283.727 530.521 294.966 533.408 302.184C536.597 310.155 542.997 317.313 549.653 322.49C552.27 324.526 560.784 326.45 561.837 329.259C563.25 333.026 560.552 346.007 565.898 347.535C571.834 349.231 579.402 346.531 585.528 346.181C588.48 346.012 602.433 348.229 607.188 343.473C593.894 330.18 603.804 316.878 603.804 300.153C603.804 292.687 591.409 282.766 587.558 277.816C584.695 274.134 584.529 269.717 582.143 266.309C574.596 255.528 550.629 252.397 540.854 260.217C536.947 263.343 531.744 267.705 530.7 272.401C529.164 279.313 532.438 275.402 529.347 278.493Z" fill="#9d6069" fill-rule="nonzero" opacity="1" stroke="none"/>
<path d="M861.695 250.741C853.3 252.42 851.401 260.941 847.481 262.248C845.507 262.906 841.527 261.526 841.389 263.601C840.968 269.905 841.185 276.24 841.389 282.554C841.763 294.151 853.811 308.386 862.372 315.044C870.572 321.422 878.83 320.228 887.417 324.521C892.632 327.128 892.014 338.595 896.216 342.797C903.623 335.39 911.449 323.928 922.614 321.136C925.747 320.353 933.926 320.174 935.475 317.075C936.179 315.667 934.799 315.214 934.121 314.368C929.386 308.448 924.645 312.489 924.645 301.507C924.645 293.032 926.666 279.506 914.492 276.462C908.702 275.015 904.207 273.668 900.277 279.17C898.898 281.1 899.804 294.005 894.185 289.323C889.202 285.17 888.573 273.314 882.678 271.047C880.487 270.204 873.958 272.599 872.525 269.017C870.194 263.187 872.511 251.418 861.695 250.741Z" fill="#fbb6b7" fill-rule="nonzero" opacity="1" stroke="none"/>
<path d="M388.555 455.836C382.912 461.479 390.042 474.916 391.94 481.557C398.319 503.882 405.887 532.055 422.399 548.568C427.188 553.357 435.937 549.471 442.706 549.245C452.483 548.919 451.81 536.607 451.505 530.969C451.078 523.071 450.59 515.176 450.152 507.279C449.813 501.192 449.813 495.089 449.475 489.003C449.283 485.553 449.39 480.119 446.767 477.496C441.919 482.344 441.615 490.093 436.614 495.095C431.311 489.791 423.952 463.201 421.046 454.482C419.889 451.012 417.868 441.614 414.277 440.267C411.333 439.163 393.35 458.233 388.555 455.836Z" fill="#cccccc" fill-rule="nonzero" opacity="1" stroke="none"/>
<path d="M346.589 319.783C352.083 317.036 358.66 315.101 364.188 312.337C366.64 311.111 371.222 314.187 373.664 314.368C378.844 314.751 384.038 315.044 389.232 315.044C398.267 315.044 408.633 305.796 414.277 300.153C420.689 293.741 420.006 285.311 423.753 277.816C419.869 273.932 412.257 265.718 406.154 264.955C395.751 263.655 374.199 280.773 366.218 278.493C363.912 277.834 363.176 274.774 361.48 273.078C358.679 270.277 349.736 270.37 346.589 270.37C341.958 270.37 342.287 286.026 341.851 288.646C338.722 307.418 336.731 304.996 346.589 319.783Z" fill="#fbb6b7" fill-rule="nonzero" opacity="1" stroke="none"/>
<path d="M785.208 539.092C779.657 541.867 773.741 549.184 767.609 550.599C753.533 553.847 737.55 560.574 739.857 579.028C740.73 586.017 755.226 587.623 759.486 585.797C769.58 581.471 772.573 578.987 782.5 570.228C788.415 565.01 796.662 562.488 802.806 557.368C796.821 551.382 791.191 545.076 785.208 539.092Z" fill="#fbb6b7" fill-rule="nonzero" opacity="1" stroke="none"/>
<path d="M821.759 501.864C807.437 509.024 793.477 524.755 781.146 535.031C788.714 542.598 794.951 552.999 803.483 559.398C806.661 561.782 810.023 557.337 812.283 556.691C814.203 556.142 826.214 555.348 826.497 551.953C827.78 536.564 826.799 518.265 821.759 501.864Z" fill="#91d9fc" fill-rule="nonzero" opacity="1" stroke="none"/>
<path d="M389.232 457.866C395.237 454.864 409.273 447.568 412.246 441.621C409.04 438.414 411.108 432.613 410.893 428.083C410.499 419.813 400.115 403.56 392.617 401.685C358.628 393.188 377.233 445.867 389.232 457.866Z" fill="#9d6069" fill-rule="nonzero" opacity="1" stroke="none"/>
<path d="M339.143 308.952C334.963 313.133 339.143 317.33 339.143 321.813C339.143 336.618 330.911 352.237 329.667 367.164C329.273 371.891 326.99 378.025 330.344 381.379C336.009 375.713 353.358 334.293 353.358 326.551C353.358 321.365 342.313 313.707 339.143 308.952Z" fill="#91d9fc" fill-rule="nonzero" opacity="1" stroke="none"/>
<path d="M300.561 501.187C294.649 507.098 299.356 517.872 299.207 526.231C298.859 545.702 290.614 551.008 313.422 549.922C314.582 549.867 316.41 547.61 316.806 547.215C308.533 534.805 311.44 512.065 300.561 501.187Z" fill="#fefefe" fill-rule="nonzero" opacity="1" stroke="none"/>
<path d="M278.901 392.209C278.087 392.31 272.935 391.829 272.132 394.239C270.551 398.983 274.788 428.032 278.224 431.468C295.316 414.376 295.049 411.499 278.901 392.209Z" fill="#fbb6b7" fill-rule="nonzero" opacity="1" stroke="none"/>
</g>
</svg>
