<?xml version="1.0" encoding="UTF-8" standalone="no"?>
<!DOCTYPE svg PUBLIC "-//W3C//DTD SVG 1.1//EN" "http://www.w3.org/Graphics/SVG/1.1/DTD/svg11.dtd">
<!-- Created with Vectornator (http://vectornator.io/) -->
<svg height="100%" stroke-miterlimit="10" style="fill-rule:nonzero;clip-rule:evenodd;stroke-linecap:round;stroke-linejoin:round;" version="1.1" viewBox="0 0 841.995 595.35" width="100%" xml:space="preserve" xmlns="http://www.w3.org/2000/svg" xmlns:vectornator="http://vectornator.io" xmlns:xlink="http://www.w3.org/1999/xlink">
<defs/>
<g id="Layer-1" vectornator:layerName="Layer 1">
<g fill="#da8cff" opacity="1" stroke="none" vectornator:layerName="Text 1">
<path d="M318.019 295.514L318.019 257.747L343.584 257.747C359.079 257.747 365.47 265.688 365.47 276.34C365.47 287.574 359.079 295.514 343.584 295.514L318.019 295.514ZM318.019 364.077L318.019 317.4L347.845 317.4C373.024 317.4 389.099 300.55 389.099 277.115C389.099 253.874 373.024 235.474 347.845 235.474L291.098 235.474L291.098 364.077L318.019 364.077Z"/>
<path d="M480.902 364.077L480.902 268.787L455.918 268.787L455.918 323.791C455.918 336.381 449.139 345.483 436.356 345.483C425.704 345.483 420.281 339.673 420.281 327.665L420.281 268.787L395.103 268.787L395.103 331.539C395.103 352.456 408.467 366.594 427.447 366.594C440.617 366.594 450.495 361.559 457.08 350.713L457.08 364.077L480.902 364.077Z"/>
<path d="M517.12 364.077L517.12 314.495C517.12 299.194 524.673 291.447 540.168 291.447C542.492 291.447 544.816 291.641 547.14 292.028L547.14 266.269L543.848 266.269C533.583 266.269 523.899 267.431 515.571 280.214L515.571 268.787L491.942 268.787L491.942 364.077L517.12 364.077Z"/>
<path d="M599.046 345.096C585.101 345.096 577.935 334.831 577.935 314.108C577.935 298.032 587.231 286.799 599.24 286.799C611.829 286.799 620.738 298.613 620.738 315.657C620.738 335.218 613.765 345.096 599.046 345.096ZM578.903 409.204L578.903 351.681C586.069 361.752 595.366 366.594 607.18 366.594C631.777 366.594 646.303 346.258 646.303 317.4C646.303 285.25 629.066 266.269 605.05 266.269C593.429 266.269 584.52 270.724 578.516 280.408L578.322 268.787L554.113 268.787L554.113 409.204L578.903 409.204Z"/>
<path d="M680.584 364.077L680.584 233.925L655.406 233.925L655.406 364.077L680.584 364.077Z"/>
<path d="M715.059 307.135C716.027 293.965 724.356 286.218 734.427 286.218C744.304 286.218 753.601 292.997 753.988 307.135L715.059 307.135ZM779.941 323.017C779.941 285.25 764.447 266.269 735.202 266.269C705.956 266.269 689.106 285.25 689.106 314.689C689.106 349.163 704.988 366.594 736.751 366.594C757.087 366.594 772.775 355.555 778.585 335.993L752.633 335.993C750.889 342.578 743.723 346.645 735.589 346.645C723.194 346.645 715.059 337.349 714.284 323.017L779.941 323.017Z"/>
</g>
<g fill="#da8cff" opacity="1" stroke="none" vectornator:layerName="Text 2">
<path d="M599.258 409.65L599.258 394.977L577.938 394.977L577.938 409.65L573.379 409.65L573.379 377.456L577.938 377.456L577.938 390.846L599.258 390.846L599.258 377.456L603.816 377.456L603.816 409.65L599.258 409.65Z"/>
<path d="M611.77 399.868C612.308 404.047 615.094 406.136 620.127 406.136C624.242 406.136 627.012 404.411 628.437 400.96L633.138 400.96C631.808 404.791 629.925 407.323 627.487 408.558C625.366 409.634 622.881 410.172 620.032 410.172C615.822 410.172 612.593 409.049 610.346 406.801C608.193 404.68 607.117 401.783 607.117 398.111C607.117 394.598 608.304 391.685 610.678 389.374C613.052 387.063 616.249 385.908 620.27 385.908C624.195 385.908 627.361 386.937 629.766 388.994C632.172 391.052 633.375 393.806 633.375 397.257L633.375 399.821L611.77 399.868ZM626.348 391.986C624.891 390.625 622.865 389.944 620.27 389.944C617.674 389.944 615.632 390.625 614.144 391.986C613.005 393.031 612.261 394.313 611.912 395.832L628.437 395.832C628.152 394.313 627.456 393.031 626.348 391.986Z"/>
<path d="M656.524 409.697L656.524 407.513C654.308 409.286 651.443 410.172 647.929 410.172C643.94 410.172 640.775 408.985 638.432 406.611C636.248 404.395 635.156 401.562 635.156 398.111C635.156 394.566 636.264 391.685 638.48 389.469C640.854 387.095 644.067 385.908 648.119 385.908C651.475 385.908 654.276 386.763 656.524 388.472L656.524 386.003L661.082 386.003L661.082 409.697L656.524 409.697ZM654.292 392.128C652.836 390.672 650.699 389.944 647.882 389.944C645.286 389.944 643.244 390.736 641.756 392.318C640.395 393.806 639.714 395.737 639.714 398.111C639.714 400.486 640.395 402.385 641.756 403.809C643.212 405.361 645.254 406.136 647.882 406.136C650.509 406.136 652.606 405.376 654.173 403.857C655.74 402.337 656.524 400.422 656.524 398.111C656.524 395.579 655.78 393.585 654.292 392.128Z"/>
<path d="M686.272 409.697L686.272 407.418C684.056 409.254 681.192 410.172 677.678 410.172C673.689 410.172 670.524 408.938 668.181 406.469C665.997 404.189 664.905 401.261 664.905 397.684C664.905 394.012 666.013 391.036 668.228 388.757C670.571 386.288 673.784 385.053 677.868 385.053C681.223 385.053 684.025 385.94 686.272 387.712L686.272 377.456L690.831 377.456L690.831 409.697L686.272 409.697ZM684.041 391.464C682.584 389.944 680.448 389.184 677.63 389.184C675.066 389.184 673.064 389.984 671.624 391.582C670.183 393.181 669.463 395.215 669.463 397.684C669.463 400.153 670.144 402.132 671.505 403.62C672.961 405.234 675.003 406.041 677.63 406.041C680.258 406.041 682.355 405.25 683.922 403.667C685.489 402.084 686.272 400.09 686.272 397.684C686.272 395.057 685.528 392.983 684.041 391.464Z"/>
<path d="M696.078 409.65L696.078 377.456L700.636 377.456L700.636 409.65L696.078 409.65Z"/>
<path d="M708.59 399.868C709.128 404.047 711.914 406.136 716.947 406.136C721.062 406.136 723.832 404.411 725.257 400.96L729.958 400.96C728.628 404.791 726.745 407.323 724.307 408.558C722.186 409.634 719.701 410.172 716.852 410.172C712.642 410.172 709.413 409.049 707.165 406.801C705.013 404.68 703.936 401.783 703.936 398.111C703.936 394.598 705.124 391.685 707.498 389.374C709.872 387.063 713.069 385.908 717.089 385.908C721.015 385.908 724.18 386.937 726.586 388.994C728.992 391.052 730.195 393.806 730.195 397.257L730.195 399.821L708.59 399.868ZM723.167 391.986C721.711 390.625 719.685 389.944 717.089 389.944C714.494 389.944 712.452 390.625 710.964 391.986C709.824 393.031 709.081 394.313 708.732 395.832L725.257 395.832C724.972 394.313 724.275 393.031 723.167 391.986Z"/>
<path d="M751.064 408.89C749.292 409.808 747.012 410.267 744.227 410.267C736.471 410.267 732.593 406.69 732.593 399.536L737.246 399.536C737.246 402.005 737.769 403.722 738.813 404.688C739.858 405.653 741.678 406.136 744.274 406.136C748.231 406.136 750.21 405.123 750.21 403.097C750.21 401.863 748.912 400.976 746.316 400.438C746.094 400.406 744.511 400.185 741.567 399.773C736.249 399.014 733.59 396.782 733.59 393.078C733.59 390.672 734.698 388.82 736.914 387.522C738.75 386.415 740.919 385.861 743.419 385.861C750.922 385.861 754.689 389.121 754.721 395.642L750.02 395.642C750.02 393.521 749.553 392.049 748.619 391.226C747.685 390.403 746.031 389.992 743.657 389.992C742.074 389.992 740.776 390.277 739.763 390.846C738.75 391.416 738.244 392.16 738.244 393.078C738.244 394.249 739.494 395.041 741.995 395.452C742.818 395.611 744.48 395.895 746.981 396.307C752.236 397.13 754.863 399.393 754.863 403.097C754.863 405.693 753.597 407.624 751.064 408.89Z"/>
<path d="M777.109 408.89C775.337 409.808 773.057 410.267 770.272 410.267C762.516 410.267 758.638 406.69 758.638 399.536L763.291 399.536C763.291 402.005 763.814 403.722 764.858 404.688C765.903 405.653 767.723 406.136 770.319 406.136C774.276 406.136 776.255 405.123 776.255 403.097C776.255 401.863 774.957 400.976 772.361 400.438C772.139 400.406 770.556 400.185 767.612 399.773C762.294 399.014 759.635 396.782 759.635 393.078C759.635 390.672 760.743 388.82 762.959 387.522C764.795 386.415 766.964 385.861 769.464 385.861C776.967 385.861 780.734 389.121 780.766 395.642L776.065 395.642C776.065 393.521 775.598 392.049 774.664 391.226C773.73 390.403 772.076 389.992 769.702 389.992C768.119 389.992 766.821 390.277 765.808 390.846C764.795 391.416 764.289 392.16 764.289 393.078C764.289 394.249 765.539 395.041 768.04 395.452C768.863 395.611 770.525 395.895 773.026 396.307C778.281 397.13 780.908 399.393 780.908 403.097C780.908 405.693 779.642 407.624 777.109 408.89Z"/>
</g>
<path d="M203.722 305.524C202.015 305.524 200.491 304.914 198.419 303.756L152.029 276.873C148.799 274.983 147.336 273.46 147.336 271.021C147.336 268.583 148.799 267.059 152.029 265.169L198.419 238.287C200.491 237.128 202.015 236.519 203.722 236.519C205.368 236.519 206.892 237.128 208.964 238.287L255.354 265.169C258.584 267.059 260.047 268.583 260.047 271.021C260.047 273.46 258.584 274.983 255.354 276.873L208.964 303.756C206.892 304.914 205.368 305.524 203.722 305.524ZM203.722 334.357C202.076 334.357 200.796 333.625 198.906 332.528L149.53 303.817C147.884 302.78 147.153 301.439 147.153 300.22C147.153 298.696 148.128 297.477 148.981 297.05L201.771 327.408C202.503 327.834 203.051 328.139 203.722 328.139C204.331 328.139 204.88 327.834 205.612 327.408L258.401 297.05C259.255 297.477 260.23 298.696 260.23 300.22C260.23 301.439 259.438 302.841 257.853 303.817L208.477 332.528C206.587 333.625 205.307 334.357 203.722 334.357ZM203.722 361.849C202.076 361.849 200.796 361.117 198.906 360.02L149.53 331.309C147.945 330.334 147.153 328.932 147.153 327.712C147.153 326.188 148.128 325.03 148.981 324.543L201.771 354.961C202.503 355.326 203.051 355.631 203.722 355.631C204.331 355.631 204.88 355.326 205.612 354.961L258.401 324.543C259.255 325.03 260.23 326.188 260.23 327.712C260.23 328.932 259.438 330.334 257.853 331.309L208.477 360.02C206.587 361.117 205.307 361.849 203.722 361.849Z" fill="#da8cff" opacity="1" stroke="none" vectornator:layerName="Text 3"/>
</g>
</svg>
